<svg width="32" height="32" viewBox="0 0 32 32" fill="none" xmlns="http://www.w3.org/2000/svg">
<path d="M17.414 0.586C17.0389 0.211058 16.5303 0.000427246 16 0.000427246C15.4696 0.000427246 14.961 0.211058 14.586 0.586L0.58596 14.586C0.221644 14.9632 0.0200549 15.4684 0.0246117 15.9928C0.0291686 16.5172 0.239506 17.0188 0.610323 17.3896C0.981139 17.7605 1.48276 17.9708 2.00716 17.9753C2.53155 17.9799 3.03676 17.7783 3.41396 17.414L3.99996 16.828V30C3.99996 30.5304 4.21067 31.0391 4.58575 31.4142C4.96082 31.7893 5.46953 32 5.99996 32H9.99996C10.5304 32 11.0391 31.7893 11.4142 31.4142C11.7892 31.0391 12 30.5304 12 30V26C12 25.4696 12.2107 24.9609 12.5857 24.5858C12.9608 24.2107 13.4695 24 14 24H18C18.5304 24 19.0391 24.2107 19.4142 24.5858C19.7892 24.9609 20 25.4696 20 26V30C20 30.5304 20.2107 31.0391 20.5857 31.4142C20.9608 31.7893 21.4695 32 22 32H26C26.5304 32 27.0391 31.7893 27.4142 31.4142C27.7892 31.0391 28 30.5304 28 30V16.828L28.586 17.414C28.9632 17.7783 29.4684 17.9799 29.9928 17.9753C30.5172 17.9708 31.0188 17.7605 31.3896 17.3896C31.7604 17.0188 31.9708 16.5172 31.9753 15.9928C31.9799 15.4684 31.7783 14.9632 31.414 14.586L17.414 0.586Z" fill="black"/>
</svg>
