<svg width="33" height="32" viewBox="0 0 33 32" fill="none" xmlns="http://www.w3.org/2000/svg">
<path d="M18.3334 2C18.3334 1.46957 18.1227 0.960859 17.7476 0.585786C17.3725 0.210714 16.8638 0 16.3334 0C15.8029 0 15.2942 0.210714 14.9192 0.585786C14.5441 0.960859 14.3334 1.46957 14.3334 2V4C14.3334 4.53043 14.5441 5.03914 14.9192 5.41421C15.2942 5.78929 15.8029 6 16.3334 6C16.8638 6 17.3725 5.78929 17.7476 5.41421C18.1227 5.03914 18.3334 4.53043 18.3334 4V2ZM27.6474 7.514C28.0117 7.1368 28.2133 6.63159 28.2087 6.1072C28.2042 5.5828 27.9938 5.08118 27.623 4.71036C27.2522 4.33955 26.7506 4.12921 26.2262 4.12465C25.7018 4.1201 25.1966 4.32168 24.8194 4.686L23.4054 6.1C23.0411 6.4772 22.8395 6.98241 22.844 7.5068C22.8486 8.0312 23.0589 8.53282 23.4297 8.90364C23.8006 9.27445 24.3022 9.48479 24.8266 9.48935C25.351 9.49391 25.8562 9.29232 26.2334 8.928L27.6474 7.514ZM32.3334 16C32.3334 16.5304 32.1227 17.0391 31.7476 17.4142C31.3725 17.7893 30.8638 18 30.3334 18H28.3334C27.8029 18 27.2942 17.7893 26.9192 17.4142C26.5441 17.0391 26.3334 16.5304 26.3334 16C26.3334 15.4696 26.5441 14.9609 26.9192 14.5858C27.2942 14.2107 27.8029 14 28.3334 14H30.3334C30.8638 14 31.3725 14.2107 31.7476 14.5858C32.1227 14.9609 32.3334 15.4696 32.3334 16ZM6.43337 8.928C6.61787 9.11902 6.83856 9.27138 7.08257 9.3762C7.32657 9.48102 7.58901 9.53619 7.85457 9.5385C8.12013 9.54081 8.38349 9.49021 8.62928 9.38964C8.87507 9.28908 9.09838 9.14058 9.28616 8.95279C9.47395 8.76501 9.62246 8.5417 9.72302 8.29591C9.82358 8.05012 9.87418 7.78676 9.87187 7.5212C9.86957 7.25564 9.81439 6.9932 9.70958 6.74919C9.60476 6.50518 9.45239 6.28449 9.26137 6.1L7.84737 4.686C7.47017 4.32168 6.96497 4.1201 6.44057 4.12465C5.91618 4.12921 5.41455 4.33955 5.04374 4.71036C4.67292 5.08118 4.46258 5.5828 4.45803 6.1072C4.45347 6.63159 4.65506 7.1368 5.01937 7.514L6.43337 8.928ZM6.33337 16C6.33337 16.5304 6.12266 17.0391 5.74759 17.4142C5.37251 17.7893 4.86381 18 4.33337 18H2.33337C1.80294 18 1.29423 17.7893 0.91916 17.4142C0.544088 17.0391 0.333374 16.5304 0.333374 16C0.333374 15.4696 0.544088 14.9609 0.91916 14.5858C1.29423 14.2107 1.80294 14 2.33337 14H4.33337C4.86381 14 5.37251 14.2107 5.74759 14.5858C6.12266 14.9609 6.33337 15.4696 6.33337 16ZM12.3334 28V26H20.3334V28C20.3334 29.0609 19.9119 30.0783 19.1618 30.8284C18.4117 31.5786 17.3942 32 16.3334 32C15.2725 32 14.2551 31.5786 13.5049 30.8284C12.7548 30.0783 12.3334 29.0609 12.3334 28ZM20.3334 24C20.3634 23.32 20.7494 22.708 21.2874 22.282C22.5927 21.2525 23.545 19.8419 24.0117 18.2463C24.4784 16.6507 24.4364 14.9493 23.8916 13.3787C23.3467 11.808 22.3261 10.4461 20.9716 9.48223C19.617 8.51837 17.9958 8.00045 16.3334 8.00045C14.6709 8.00045 13.0497 8.51837 11.6952 9.48223C10.3406 10.4461 9.32002 11.808 8.77519 13.3787C8.23035 14.9493 8.18838 16.6507 8.65509 18.2463C9.1218 19.8419 10.074 21.2525 11.3794 22.282C11.9194 22.708 12.3034 23.32 12.3314 24H20.3354H20.3334Z" fill="black"/>
</svg>
