<svg width="177" height="47" viewBox="0 0 177 47" fill="none" xmlns="http://www.w3.org/2000/svg">
<path d="M15.95 32.6H15.7C15.4667 33.2667 15.15 33.9 14.75 34.5C14.3833 35.1 13.9 35.6333 13.3 36.1C12.7 36.5667 11.9833 36.9333 11.15 37.2C10.35 37.4667 9.41667 37.6 8.35 37.6C5.65 37.6 3.6 36.7167 2.2 34.95C0.833333 33.15 0.15 30.5833 0.15 27.25V10.75H7.55V26.6C7.55 28.2 7.83333 29.4333 8.4 30.3C8.96667 31.1667 9.93333 31.6 11.3 31.6C11.8667 31.6 12.4333 31.5167 13 31.35C13.5667 31.1833 14.0667 30.95 14.5 30.65C14.9333 30.3167 15.2833 29.9167 15.55 29.45C15.8167 28.9833 15.95 28.4333 15.95 27.8V10.75H23.35V37H15.95V32.6ZM30.2352 10.75H37.6352V15.15H37.8852C38.2518 13.6833 39.0852 12.4833 40.3852 11.55C41.7185 10.6167 43.2352 10.15 44.9352 10.15C48.2685 10.15 50.7852 11.3167 52.4852 13.65C54.1852 15.9833 55.0352 19.3833 55.0352 23.85C55.0352 28.3167 54.1852 31.7333 52.4852 34.1C50.7852 36.4333 48.2685 37.6 44.9352 37.6C44.0685 37.6 43.2518 37.4667 42.4852 37.2C41.7185 36.9667 41.0185 36.6333 40.3852 36.2C39.7852 35.7333 39.2685 35.2 38.8352 34.6C38.4018 33.9667 38.0852 33.3 37.8852 32.6H37.6352V47H30.2352V10.75ZM42.4852 31.6C43.8852 31.6 45.0352 31.1167 45.9352 30.15C46.8685 29.15 47.3352 27.8167 47.3352 26.15V21.6C47.3352 19.9333 46.8685 18.6167 45.9352 17.65C45.0352 16.65 43.8852 16.15 42.4852 16.15C41.0852 16.15 39.9185 16.5 38.9852 17.2C38.0852 17.8667 37.6352 18.8 37.6352 20V27.75C37.6352 28.95 38.0852 29.9 38.9852 30.6C39.9185 31.2667 41.0852 31.6 42.4852 31.6ZM71.2551 37.6C69.2884 37.6 67.5384 37.2833 66.0051 36.65C64.4717 35.9833 63.1884 35.0667 62.1551 33.9C61.1217 32.7 60.3384 31.25 59.8051 29.55C59.2717 27.85 59.0051 25.95 59.0051 23.85C59.0051 21.75 59.2717 19.8667 59.8051 18.2C60.3384 16.5 61.1217 15.05 62.1551 13.85C63.1884 12.65 64.4717 11.7333 66.0051 11.1C67.5384 10.4667 69.2884 10.15 71.2551 10.15C73.9217 10.15 76.1384 10.75 77.9051 11.95C79.7051 13.15 80.9884 14.8333 81.7551 17L75.7551 19.6C75.5217 18.6 75.0384 17.75 74.3051 17.05C73.5717 16.35 72.5551 16 71.2551 16C69.7551 16 68.6217 16.5 67.8551 17.5C67.0884 18.4667 66.7051 19.7833 66.7051 21.45V26.35C66.7051 28.0167 67.0884 29.3333 67.8551 30.3C68.6217 31.2667 69.7551 31.75 71.2551 31.75C72.5884 31.75 73.6384 31.4 74.4051 30.7C75.2051 29.9667 75.7884 29.0167 76.1551 27.85L81.9051 30.35C81.0384 32.85 79.6884 34.6833 77.8551 35.85C76.0551 37.0167 73.8551 37.6 71.2551 37.6ZM102.535 10.75H109.435L99.3352 41.05C98.6685 43.0833 97.7185 44.5833 96.4852 45.55C95.2852 46.5167 93.5518 47 91.2852 47H86.6852V41.25H91.6352L92.5352 38.35L83.3352 10.75H90.6852L94.5352 23L96.4352 30.6H96.7352L98.6852 23L102.535 10.75ZM123.404 37.6C121.437 37.6 119.687 37.2833 118.154 36.65C116.62 35.9833 115.337 35.0667 114.304 33.9C113.27 32.7 112.487 31.25 111.954 29.55C111.42 27.85 111.154 25.95 111.154 23.85C111.154 21.75 111.42 19.8667 111.954 18.2C112.487 16.5 113.27 15.05 114.304 13.85C115.337 12.65 116.62 11.7333 118.154 11.1C119.687 10.4667 121.437 10.15 123.404 10.15C126.07 10.15 128.287 10.75 130.054 11.95C131.854 13.15 133.137 14.8333 133.904 17L127.904 19.6C127.67 18.6 127.187 17.75 126.454 17.05C125.72 16.35 124.704 16 123.404 16C121.904 16 120.77 16.5 120.004 17.5C119.237 18.4667 118.854 19.7833 118.854 21.45V26.35C118.854 28.0167 119.237 29.3333 120.004 30.3C120.77 31.2667 121.904 31.75 123.404 31.75C124.737 31.75 125.787 31.4 126.554 30.7C127.354 29.9667 127.937 29.0167 128.304 27.85L134.054 30.35C133.187 32.85 131.837 34.6833 130.004 35.85C128.204 37.0167 126.004 37.6 123.404 37.6ZM145.984 37C143.45 37 141.584 36.3833 140.384 35.15C139.217 33.9167 138.634 32.1333 138.634 29.8V-4.76837e-07H146.034V31.25H149.334V37H145.984ZM164.72 37.6C162.72 37.6 160.937 37.2833 159.37 36.65C157.804 35.9833 156.47 35.0667 155.37 33.9C154.304 32.7 153.487 31.25 152.92 29.55C152.387 27.85 152.12 25.95 152.12 23.85C152.12 21.7833 152.387 19.9167 152.92 18.25C153.454 16.55 154.237 15.1 155.27 13.9C156.337 12.7 157.637 11.7833 159.17 11.15C160.704 10.4833 162.454 10.15 164.42 10.15C166.587 10.15 168.437 10.5167 169.97 11.25C171.537 11.9833 172.804 12.9667 173.77 14.2C174.77 15.4333 175.487 16.8667 175.92 18.5C176.387 20.1 176.62 21.7833 176.62 23.55V25.75H159.77V26.15C159.77 27.8833 160.237 29.2667 161.17 30.3C162.104 31.3 163.57 31.8 165.57 31.8C167.104 31.8 168.354 31.5 169.32 30.9C170.287 30.2667 171.187 29.5167 172.02 28.65L175.72 33.25C174.554 34.6167 173.02 35.6833 171.12 36.45C169.254 37.2167 167.12 37.6 164.72 37.6ZM164.57 15.6C163.07 15.6 161.887 16.1 161.02 17.1C160.187 18.0667 159.77 19.3667 159.77 21V21.4H168.97V20.95C168.97 19.35 168.604 18.0667 167.87 17.1C167.17 16.1 166.07 15.6 164.57 15.6Z" fill="#FF5353"/>
</svg>
