<svg width="25" height="24" viewBox="0 0 25 24" fill="none" xmlns="http://www.w3.org/2000/svg">
<path d="M7.66541 18.7708L12.1279 16.0792L16.5904 18.8063L15.4217 13.7062L19.3529 10.3063L14.1821 9.84583L12.1279 5.02917L10.0737 9.81042L4.90291 10.2708L8.83416 13.7062L7.66541 18.7708ZM12.1279 19.4083L6.24874 22.95C5.98902 23.1153 5.71749 23.1861 5.43416 23.1625C5.15082 23.1389 4.90291 23.0444 4.69041 22.8792C4.47791 22.7139 4.31263 22.5071 4.19457 22.2587C4.07652 22.0103 4.05291 21.7331 4.12374 21.4271L5.68207 14.7333L0.475824 10.2354C0.239713 10.0229 0.0923796 9.78067 0.033824 9.50867C-0.0247315 9.23667 -0.00725937 8.97128 0.0862406 8.7125C0.180685 8.45278 0.322352 8.24028 0.511241 8.075C0.700129 7.90972 0.959852 7.80347 1.29041 7.75625L8.16124 7.15417L10.8175 0.850001C10.9355 0.566667 11.1188 0.354167 11.3672 0.2125C11.6155 0.0708335 11.8691 0 12.1279 0C12.3876 0 12.6412 0.0708335 12.8887 0.2125C13.1361 0.354167 13.3193 0.566667 13.4383 0.850001L16.0946 7.15417L22.9654 7.75625C23.296 7.80347 23.5557 7.90972 23.7446 8.075C23.9335 8.24028 24.0751 8.45278 24.1696 8.7125C24.264 8.97222 24.282 9.23808 24.2234 9.51008C24.1649 9.78208 24.017 10.0239 23.78 10.2354L18.5737 14.7333L20.1321 21.4271C20.2029 21.734 20.1793 22.0117 20.0612 22.2601C19.9432 22.5085 19.7779 22.7148 19.5654 22.8792C19.3529 23.0444 19.105 23.1389 18.8217 23.1625C18.5383 23.1861 18.2668 23.1153 18.0071 22.95L12.1279 19.4083Z" fill="black"/>
</svg>
